name Run_50002_IK.mot
datacolumns 164
datarows 4
range 1.62 1.65
endheader
time	         pelvis_tilt	         pelvis_list	     pelvis_rotation	           pelvis_tx	           pelvis_ty	           pelvis_tz	       hip_flexion_r	     hip_adduction_r	      hip_rotation_r	        knee_angle_r	       ankle_angle_r	       hip_flexion_l	     hip_adduction_l	      hip_rotation_l	        knee_angle_l	       ankle_angle_l	    lumbar_extension	      lumbar_bending	     lumbar_rotation	          arm_flex_r	           arm_add_r	           arm_rot_r	        elbow_flex_r	           pro_sup_r	          arm_flex_l	           arm_add_l	           arm_rot_l	        elbow_flex_l	           pro_sup_l	    subtalar_angle_r	         mtp_angle_r	    subtalar_angle_l	         mtp_angle_l	        wrist_flex_r	         wrist_dev_r	        wrist_flex_l	         wrist_dev_l	             LASI_tx	             LASI_ty	             LASI_tz	             RASI_tx	             RASI_ty	             RASI_tz	             LPSI_tx	             LPSI_ty	             LPSI_tz	             RPSI_tx	             RPSI_ty	             RPSI_tz	             RTH1_tx	             RTH1_ty	             RTH1_tz	             RTH2_tx	             RTH2_ty	             RTH2_tz	             RTH3_tx	             RTH3_ty	             RTH3_tz	             LTH1_tx	             LTH1_ty	             LTH1_tz	             LTH2_tx	             LTH2_ty	             LTH2_tz	             LTH3_tx	             LTH3_ty	             LTH3_tz	             RTB1_tx	             RTB1_ty	             RTB1_tz	             RTB2_tx	             RTB2_ty	             RTB2_tz	             RTB3_tx	             RTB3_ty	             RTB3_tz	             LTB1_tx	             LTB1_ty	             LTB1_tz	             LTB2_tx	             LTB2_ty	             LTB2_tz	             LTB3_tx	             LTB3_ty	             LTB3_tz	             RCAL_tx	             RCAL_ty	             RCAL_tz	             RTOE_tx	             RTOE_ty	             RTOE_tz	             RMT5_tx	             RMT5_ty	             RMT5_tz	             LCAL_tx	             LCAL_ty	             LCAL_tz	             LTOE_tx	             LTOE_ty	             LTOE_tz	             LMT5_tx	             LMT5_ty	             LMT5_tz	             LACR_tx	             LACR_ty	             LACR_tz	             RACR_tx	             RACR_ty	             RACR_tz	             CLAV_tx	             CLAV_ty	             CLAV_tz	               C7_tx	               C7_ty	               C7_tz	             RUA1_tx	             RUA1_ty	             RUA1_tz	             RUA2_tx	             RUA2_ty	             RUA2_tz	             RUA3_tx	             RUA3_ty	             RUA3_tz	             RLEL_tx	             RLEL_ty	             RLEL_tz	             RMEL_tx	             RMEL_ty	             RMEL_tz	             LUA1_tx	             LUA1_ty	             LUA1_tz	             LUA2_tx	             LUA2_ty	             LUA2_tz	             LUA3_tx	             LUA3_ty	             LUA3_tz	             LLEL_tx	             LLEL_ty	             LLEL_tz	             LMEL_tx	             LMEL_ty	             LMEL_tz	      RFAsuperior_tx	      RFAsuperior_ty	      RFAsuperior_tz	        RFAradius_tx	        RFAradius_ty	        RFAradius_tz	          RFAulna_tx	          RFAulna_ty	          RFAulna_tz	      LFAsuperior_tx	      LFAsuperior_ty	      LFAsuperior_tz	        LFAradius_tx	        LFAradius_ty	        LFAradius_tz	          LFAulna_tx	          LFAulna_ty	          LFAulna_tz	
1.62	        -12.93865008	          1.13027248	         -3.33556159	          0.99532143	          0.97776899	         -0.35164761	         55.66529052	          1.32493346	          2.40996340	       -114.72599764	          5.80093246	         10.62100504	          7.40145824	         -4.40578168	        -32.68527939	         19.54715330	          3.63899712	         -2.71947234	         -5.65412440	        -43.79891679	        -22.05320664	        -16.99048413	         91.89507473	        117.47249772	        -24.13120584	        -11.51687445	        -15.74518921	        117.41123853	        106.46155113	          0.00000000	          0.00000000	          0.00000000	          0.00000000	          0.00000000	          0.00000000	          0.00000000	          0.00000000	          1.02085650	          1.01068741	         -0.45325133	          1.00790873	          1.02129187	         -0.24037633	          0.85442752	          1.08106276	         -0.42513843	          0.84933752	          1.07878882	         -0.31081037	          0.95564333	          0.91352885	         -0.18334803	          0.99300935	          0.77416782	         -0.19647076	          1.12871058	          0.68072462	         -0.19202691	          0.94400704	          0.88019646	         -0.53268727	          0.85549029	          0.73624136	         -0.48323836	          0.89450455	          0.59790287	         -0.46898813	          1.09886766	          0.49702429	         -0.26199437	          1.02258506	          0.55413394	         -0.19343479	          0.91423201	          0.45794249	         -0.27288114	          0.88074877	          0.37333549	         -0.38385028	          0.75209160	          0.32154521	         -0.43131666	          0.73664824	          0.20818410	         -0.36250975	          0.74309930	          0.52012218	         -0.27183727	          0.82799226	          0.29268824	         -0.28983044	          0.78512917	          0.32632504	         -0.19658893	          0.54998053	          0.14997198	         -0.33151837	          0.77231305	          0.06602705	         -0.32662321	          0.70949767	          0.04098729	         -0.41958175	          0.99234821	          1.50066511	         -0.53741925	          0.97854527	          1.49767390	         -0.20989125	          1.04814895	          1.46060400	         -0.33487160	          0.92993693	          1.52820466	         -0.38066243	          0.84457555	          1.43357130	         -0.16839607	          0.86254346	          1.38142173	         -0.11425352	          0.76607240	          1.34272940	         -0.08535531	          0.71147174	          1.30582848	         -0.05716075	          0.71648956	          1.26062996	         -0.13495004	          0.90593416	          1.39107022	         -0.59317600	          0.94254286	          1.31401740	         -0.60985444	          0.87893779	          1.24005761	         -0.63336351	          0.86850654	          1.17493257	         -0.65135138	          0.85182636	          1.15467894	         -0.56342238	          0.76812434	          1.21357140	         -0.02556279	          0.89320600	          1.08640966	         -0.07411115	          0.84696053	          1.07244216	         -0.02441439	          0.94253448	          1.13624797	         -0.64261619	          1.10413904	          1.16743709	         -0.54673213	          1.11092716	          1.10535633	         -0.58201915	
1.63	        -12.67428297	         -0.04777012	         -4.73939439	          0.99962705	          0.98421444	         -0.35121372	         57.23795626	          3.43081668	          2.33564119	       -110.17356073	          6.17942554	          4.93138767	          6.32510152	         -4.81002831	        -28.23953723	         14.21372119	          3.90911447	         -0.82656047	         -5.48387614	        -46.41912603	        -22.55832802	        -17.82700323	         93.98255798	        114.27660477	        -23.81638720	        -10.48829145	        -16.26119439	        120.93629634	        106.75567314	          0.00000000	          0.00000000	          0.00000000	          0.00000000	          0.00000000	          0.00000000	          0.00000000	          0.00000000	          1.02705915	          1.01432341	         -0.45699841	          1.00878164	          1.02998435	         -0.23931634	          0.86066031	          1.08466599	         -0.42879296	          0.85158440	          1.08424995	         -0.31429001	          0.95929197	          0.92421797	         -0.18223797	          1.00047322	          0.78462746	         -0.19805860	          1.13951931	          0.69735362	         -0.19379876	          0.94723652	          0.88316750	         -0.53066059	          0.84492927	          0.74519155	         -0.48518352	          0.87243617	          0.60520171	         -0.46901037	          1.12467795	          0.50463284	         -0.26283377	          1.04267265	          0.55419388	         -0.19547051	          0.94383955	          0.44473686	         -0.27233781	          0.84358534	          0.38063342	         -0.38529859	          0.71417305	          0.33327962	         -0.43378469	          0.69658903	          0.21883870	         -0.36536358	          0.76808594	          0.48722257	         -0.27182047	          0.87904563	          0.27119352	         -0.28840689	          0.83275928	          0.30030311	         -0.19511583	          0.51066769	          0.16860778	         -0.33612683	          0.72301853	          0.06424797	         -0.32623379	          0.65906124	          0.04234832	         -0.41875929	          0.99468663	          1.50875033	         -0.53558148	          0.97451044	          1.50468243	         -0.20957657	          1.04641501	          1.46766669	         -0.33281072	          0.92919124	          1.53458082	         -0.38041745	          0.83907881	          1.44427601	         -0.17132885	          0.85510948	          1.39098839	         -0.11657610	          0.75710697	          1.35452740	         -0.09006762	          0.70058346	          1.31895588	         -0.06352791	          0.70697594	          1.27396811	         -0.14174603	          0.91054260	          1.39859970	         -0.59345020	          0.94862815	          1.32187078	         -0.60856231	          0.88582405	          1.24714797	         -0.63198959	          0.87741338	          1.18136279	         -0.64995505	          0.86068515	          1.16117225	         -0.56172588	          0.75603331	          1.22688038	         -0.03112824	          0.88312551	          1.10137770	         -0.07606459	          0.83435697	          1.08531409	         -0.02995025	          0.95377586	          1.14830218	         -0.63918870	          1.11116558	          1.19220217	         -0.54196924	          1.12326185	          1.13046775	         -0.57624862	
1.64	        -12.54456270	         -1.25986214	         -6.17612607	          1.00443785	          0.99072969	         -0.35057483	         58.44118992	          5.42113467	          2.02405827	       -105.03970884	          6.44382146	         -0.55308505	          5.22275231	         -5.78754037	        -23.55152865	          7.47143167	          4.31792166	          1.12173809	         -5.22929415	        -49.08591040	        -22.99916431	        -18.71984729	         96.21721306	        111.45949710	        -23.76835309	         -9.55938852	        -16.51144935	        124.49613715	        106.00519579	          0.00000000	          0.00000000	          0.00000000	          0.00000000	          0.00000000	          0.00000000	          0.00000000	          0.00000000	          1.03414511	          1.01850957	         -0.46055273	          1.01038471	          1.03913821	         -0.23764625	          0.86777654	          1.08881918	         -0.43225476	          0.85468796	          1.09025054	         -0.31781187	          0.96221039	          0.93454004	         -0.18034019	          1.00733815	          0.79489185	         -0.19911647	          1.14835743	          0.71240833	         -0.19512963	          0.95083478	          0.88659839	         -0.52923007	          0.83564336	          0.75613327	         -0.48716128	          0.85211327	          0.61546525	         -0.47071734	          1.14882479	          0.51145980	         -0.26288773	          1.06165135	          0.55267898	         -0.19755280	          0.97482929	          0.43093051	         -0.27191841	          0.80878788	          0.39121202	         -0.38942537	          0.67836452	          0.34780765	         -0.43761168	          0.66025365	          0.23163158	         -0.37042607	          0.79639137	          0.45306384	         -0.27271038	          0.93184764	          0.25135476	         -0.28687787	          0.88241479	          0.27561776	         -0.19389257	          0.47596397	          0.18921680	         -0.34180222	          0.67486293	          0.06297604	         -0.32685465	          0.60992337	          0.04479543	         -0.41873707	          0.99692326	          1.51697716	         -0.53358904	          0.97070290	          1.51178559	         -0.20929916	          1.04482308	          1.47495736	         -0.33052413	          0.92848063	          1.54085296	         -0.38001136	          0.83405430	          1.45527682	         -0.17423698	          0.84825430	          1.40051649	         -0.11911214	          0.74912939	          1.36616694	         -0.09486050	          0.69080147	          1.33183969	         -0.07003048	          0.69823926	          1.28712451	         -0.14866531	          0.91474647	          1.40645701	         -0.59347728	          0.95447566	          1.33018255	         -0.60735019	          0.89250591	          1.25503832	         -0.63124822	          0.88541115	          1.18845988	         -0.64877810	          0.86836114	          1.16847537	         -0.56050228	          0.74536676	          1.24010843	         -0.03708979	          0.87446997	          1.11654275	         -0.07880141	          0.82376302	          1.09840053	         -0.03592739	          0.96343887	          1.16082989	         -0.63601721	          1.11581032	          1.21739820	         -0.53790239	          1.13250348	          1.15574205	         -0.57002115	
1.65	        -12.70306839	         -2.32007874	         -7.43815906	          1.00908514	          0.99687849	         -0.34977798	         59.53280626	          7.08787570	          1.53949701	        -99.42094731	          6.46512697	         -5.32693191	          4.28757225	         -7.00177868	        -19.16586849	         -0.07183667	          5.00354193	          2.86079718	         -5.12411402	        -51.63343253	        -23.28972000	        -19.61090901	         98.43610622	        108.99562654	        -23.94228865	         -8.82571213	        -16.55740638	        128.05800156	        104.66399683	          0.00000000	          0.00000000	          0.00000000	          0.00000000	          0.00000000	          0.00000000	          0.00000000	          0.00000000	          1.04140065	          1.02333605	         -0.46344746	          1.01243312	          1.04776095	         -0.23559457	          0.87506244	          1.09361211	         -0.43505674	          0.85841946	          1.09672590	         -0.32082571	          0.96415442	          0.94434475	         -0.17805428	          1.01390366	          0.80470062	         -0.19948814	          1.15536739	          0.72539294	         -0.19617451	          0.95377422	          0.89010839	         -0.52877080	          0.82773189	          0.76877998	         -0.48846056	          0.83366352	          0.62794105	         -0.47301816	          1.17116839	          0.51734237	         -0.26272525	          1.07953738	          0.54938760	         -0.19945098	          1.00773947	          0.41688950	         -0.27186586	          0.77765796	          0.40449026	         -0.39510297	          0.64619073	          0.36423938	         -0.44222179	          0.62844576	          0.24615529	         -0.37695107	          0.82809243	          0.41828723	         -0.27420220	          0.98590448	          0.23341364	         -0.28572886	          0.93355046	          0.25249346	         -0.19321397	          0.44643695	          0.21165139	         -0.34877082	          0.62842025	          0.06300380	         -0.32867680	          0.56342356	          0.04963315	         -0.42066206	          0.99904009	          1.52493189	         -0.53165003	          0.96712556	          1.51859993	         -0.20917051	          1.04344689	          1.48193948	         -0.32817705	          0.92795665	          1.54665752	         -0.37970834	          0.82957888	          1.46589158	         -0.17746318	          0.84185119	          1.40990948	         -0.12172546	          0.74189881	          1.37739839	         -0.09965063	          0.68195255	          1.34407284	         -0.07670388	          0.69041211	          1.29977883	         -0.15567090	          0.91871777	          1.41423066	         -0.59345755	          0.95993463	          1.33852520	         -0.60650744	          0.89885704	          1.26309537	         -0.63138894	          0.89268212	          1.19565333	         -0.64798049	          0.87480690	          1.17592380	         -0.55954817	          0.73582588	          1.25279426	         -0.04328014	          0.86718339	          1.13149422	         -0.08193301	          0.81501469	          1.11126213	         -0.04201465	          0.97175760	          1.17322657	         -0.63334984	          1.11820857	          1.24214139	         -0.53434252	          1.13904482	          1.18035885	         -0.56360873	
